<?xml version="1.0" standalone="no"?>
<!DOCTYPE svg PUBLIC "-//W3C//DTD SVG 20010904//EN"
 "http://www.w3.org/TR/2001/REC-SVG-20010904/DTD/svg10.dtd">
<svg version="1.0" xmlns="http://www.w3.org/2000/svg"
 width="260.000000pt" height="260.000000pt" viewBox="0 0 260.000000 260.000000"
 preserveAspectRatio="xMidYMid meet">
<metadata>
Created by potrace 1.14, written by Peter Selinger 2001-2017
</metadata>
<g transform="translate(0.000000,260.000000) scale(0.100000,-0.100000)"
fill="#000000" stroke="none">
<path d="M0 1300 l0 -1300 1300 0 1300 0 0 1300 0 1300 -1300 0 -1300 0 0
-1300z m905 677 c144 -48 224 -146 225 -278 0 -104 -79 -212 -195 -266 l-54
-24 125 -252 c70 -139 135 -264 146 -280 11 -15 37 -36 59 -47 21 -11 39 -25
39 -30 0 -6 -50 -11 -122 -11 -88 -1 -113 -4 -88 -10 25 -6 19 -6 -20 -2 -30
4 -127 7 -215 7 -483 3 -655 7 -655 15 0 5 17 18 37 28 21 10 43 29 50 43 18
35 18 621 1 638 -9 9 -9 12 0 12 9 0 12 51 12 198 0 220 -3 230 -66 257 -20 8
-33 18 -31 22 3 5 162 5 354 2 287 -4 357 -8 398 -22z m865 19 c0 -8 -11 -17
-25 -20 -14 -4 -34 -15 -45 -26 -19 -19 -20 -34 -20 -270 0 -143 4 -250 9
-250 13 0 475 478 483 499 8 23 -1 37 -35 50 -54 21 -17 31 114 31 145 0 160
-9 69 -43 -48 -17 -78 -43 -243 -211 -114 -117 -186 -197 -183 -207 3 -14 249
-377 409 -603 59 -84 77 -101 119 -120 27 -12 46 -25 42 -29 -10 -10 -462 -9
-468 1 -3 5 10 16 29 25 22 10 35 24 35 35 0 16 -206 319 -334 492 l-41 55 -3
-255 c-1 -140 0 -265 3 -277 3 -13 22 -31 45 -43 22 -11 40 -25 40 -30 0 -6
-87 -10 -230 -10 -126 0 -230 3 -230 8 0 4 20 18 44 30 25 13 47 33 50 45 10
38 7 1047 -4 1066 -5 10 -28 26 -50 35 -23 9 -38 21 -35 26 4 6 94 10 231 10
185 0 224 -2 224 -14z m-598 -1236 c21 -6 40 -16 44 -22 5 -8 1 -9 -12 -3 -10
4 -41 13 -69 20 -31 8 -40 14 -25 14 14 1 42 -4 62 -9z m-969 -7 c-7 -2 -19
-2 -25 0 -7 3 -2 5 12 5 14 0 19 -2 13 -5z m1174 -99 c-3 -3 -12 -4 -19 -1 -8
3 -5 6 6 6 11 1 17 -2 13 -5z m288 -74 l20 -9 -20 0 c-11 0 -29 4 -40 9 l-20
9 20 0 c11 0 29 -4 40 -9z m128 -25 c20 -4 37 -11 37 -15 0 -8 -111 17 -120
27 -3 3 6 3 20 0 14 -3 42 -9 63 -12z"/>
<path d="M527 1963 c-4 -3 -7 -129 -7 -280 l0 -273 71 0 c192 0 269 80 269
280 0 148 -48 237 -143 265 -51 15 -178 21 -190 8z"/>
<path d="M527 1364 c-13 -14 -8 -467 6 -494 19 -38 88 -70 155 -71 129 -3 222
2 222 10 0 5 -21 53 -47 107 -25 55 -83 178 -129 274 l-82 175 -59 3 c-32 2
-62 0 -66 -4z"/>
</g>
</svg>
