<?xml version="1.0" standalone="no"?>
<!DOCTYPE svg PUBLIC "-//W3C//DTD SVG 20010904//EN"
 "http://www.w3.org/TR/2001/REC-SVG-20010904/DTD/svg10.dtd">
<svg version="1.0" xmlns="http://www.w3.org/2000/svg"
 width="260.000000pt" height="260.000000pt" viewBox="0 0 260.000000 260.000000"
 preserveAspectRatio="xMidYMid meet">
<metadata>
Created by potrace 1.14, written by Peter Selinger 2001-2017
</metadata>
<g transform="translate(0.000000,260.000000) scale(0.100000,-0.100000)"
fill="#000000" stroke="none">
<path d="M449 2421 c-58 -4 -103 -11 -113 -20 -13 -11 -16 -32 -16 -102 0 -58
4 -90 12 -95 7 -4 65 -7 129 -5 153 3 167 -1 167 -45 0 -48 -25 -56 -165 -53
-88 2 -116 0 -128 -11 -12 -13 -14 -81 -16 -405 -1 -214 -1 -415 0 -445 1 -30
-1 -99 -5 -152 -5 -89 -4 -98 15 -117 17 -17 34 -21 94 -22 39 0 113 -3 164
-5 72 -4 98 -2 122 11 17 8 31 21 32 28 4 48 -3 1349 -7 1374 -9 51 -34 66
-116 68 -40 2 -116 0 -169 -4z"/>
<path d="M1179 2398 c0 -2 -3 -42 -6 -90 -5 -85 -4 -87 22 -104 23 -15 28 -15
36 -3 10 16 12 159 3 183 -5 13 -52 24 -55 14z"/>
<path d="M1194 2084 c-30 -15 -30 -15 -42 -137 -18 -192 -31 -297 -47 -362 -7
-33 -17 -88 -20 -121 -6 -52 -12 -67 -40 -94 -24 -23 -40 -31 -60 -28 -47 5
-61 65 -85 352 -28 334 -33 379 -46 383 -15 5 -24 -270 -24 -733 0 -350 1
-374 18 -383 21 -11 705 -26 757 -17 62 12 62 6 54 466 -3 228 -5 417 -3 419
4 4 6 -1 28 -89 10 -36 22 -78 28 -95 5 -16 13 -48 17 -70 4 -22 12 -56 18
-75 16 -49 33 -118 42 -165 4 -22 12 -56 18 -75 56 -179 62 -264 21 -269 -5
-1 -9 -4 -10 -8 -2 -5 20 -11 48 -14 28 -4 60 -12 72 -18 17 -9 32 -9 65 1 28
8 118 12 269 13 l226 0 27 -25 c27 -25 27 -25 22 -138 -4 -85 -9 -118 -21
-131 -15 -17 -55 -19 -504 -25 -571 -8 -783 -15 -796 -27 -6 -6 -3 -9 8 -9 9
0 14 -5 11 -10 -4 -6 -10 -8 -15 -5 -4 3 -14 -2 -21 -11 -7 -8 -8 -14 -3 -12
5 2 10 -1 12 -6 1 -6 -10 -11 -25 -13 -16 -2 -35 -6 -43 -10 -8 -3 -18 -5 -22
-5 -5 1 -7 -3 -5 -10 1 -7 -5 -13 -13 -13 -8 0 -14 -6 -13 -12 2 -7 -6 -10
-17 -8 -11 2 -19 0 -17 -5 1 -4 -2 -9 -8 -10 -5 -1 -17 -8 -26 -16 -9 -8 -19
-11 -23 -7 -4 5 -6 4 -4 -2 2 -5 -1 -11 -7 -13 -5 -2 -17 -10 -26 -18 -9 -8
-19 -11 -23 -7 -4 5 -6 4 -4 -2 2 -5 -1 -11 -5 -12 -5 0 -23 -14 -40 -30 -17
-15 -25 -19 -17 -8 14 20 14 20 -7 1 -13 -10 -20 -22 -17 -27 2 -4 -5 -6 -16
-4 -13 3 -20 -1 -20 -12 0 -9 -3 -13 -7 -10 -4 4 -20 -5 -37 -20 -17 -16 -24
-20 -16 -8 14 19 14 19 -6 2 -11 -9 -24 -14 -28 -10 -4 5 -6 1 -4 -7 2 -8 -3
-14 -10 -12 -6 1 -11 -1 -10 -5 2 -5 -1 -9 -5 -10 -5 0 -23 -14 -40 -30 -17
-15 -25 -19 -17 -8 8 11 0 7 -17 -8 -17 -16 -35 -30 -40 -30 -4 -1 -7 -6 -5
-10 1 -5 -1 -6 -6 -3 -5 3 -19 -5 -32 -19 -12 -13 -30 -22 -39 -20 -10 2 -18
-3 -18 -12 0 -9 7 -13 20 -9 12 3 16 1 11 -4 -5 -5 -28 -10 -51 -11 -23 -2
-40 -6 -38 -10 7 -11 -29 -37 -47 -34 -10 2 -16 -2 -15 -8 1 -6 -3 -11 -10
-12 -6 0 -15 -3 -19 -8 -4 -4 504 -7 1129 -7 l1137 0 0 743 c0 409 -3 747 -7
750 -4 4 -20 -5 -36 -20 -17 -16 -26 -21 -22 -13 8 13 6 13 -8 1 -9 -7 -14
-17 -12 -22 3 -4 -4 -6 -15 -4 -13 3 -20 -1 -20 -12 0 -9 -3 -13 -7 -10 -4 4
-20 -5 -37 -20 -17 -16 -24 -20 -16 -8 14 20 14 20 -7 1 -13 -10 -20 -22 -17
-27 2 -4 -5 -6 -16 -4 -13 3 -20 -1 -20 -12 0 -13 -3 -13 -16 -3 -8 8 -14 9
-13 4 4 -23 -2 -36 -15 -31 -17 7 -36 -11 -36 -34 0 -20 -11 -25 -102 -39 -38
-6 -78 -15 -90 -20 -31 -12 -152 -26 -145 -16 1 2 -7 14 -18 26 -14 15 -16 25
-9 37 10 17 86 49 149 63 52 11 137 41 151 52 13 10 7 48 -7 48 -5 0 -9 13 -9
29 0 16 -7 34 -15 41 -8 7 -15 25 -15 40 0 15 -6 33 -14 40 -8 6 -16 24 -18
38 -2 15 -7 26 -13 24 -12 -4 -23 30 -24 76 -1 18 -5 31 -10 28 -5 -4 -11 -1
-13 5 -3 8 -20 6 -58 -4 -213 -58 -257 -57 -273 2 -12 48 -2 79 28 87 14 3 30
14 35 24 13 25 13 27 -7 32 -17 5 -34 30 -47 71 -3 11 -15 17 -33 17 -15 0
-45 12 -67 28 -38 26 -44 27 -170 28 -153 1 -244 17 -254 44 -7 18 -9 18 -38
4z m357 -258 c20 -9 20 -73 0 -81 -28 -11 -160 -17 -214 -11 l-57 7 0 44 c0
37 3 44 23 49 30 6 228 0 248 -8z m609 -277 c0 -5 -4 -9 -10 -9 -5 0 -10 7
-10 16 0 8 5 12 10 9 6 -3 10 -10 10 -16z m-1007 -254 c34 -14 35 -89 2 -111
-32 -21 -191 -29 -240 -12 -38 12 -40 15 -43 59 -4 55 11 70 71 79 46 6 181
-4 210 -15z m1107 -955 c-1 -155 -3 -160 -92 -160 -54 0 -68 4 -86 23 -17 18
-20 30 -15 61 3 21 12 40 19 43 8 3 14 13 14 23 0 18 34 33 75 34 15 1 21 11
28 46 10 52 36 88 49 68 4 -7 8 -69 8 -138z"/>
<path d="M361 651 c-19 -12 -7 -126 18 -184 10 -23 23 -55 27 -71 9 -30 18
-37 69 -53 27 -8 33 -7 48 14 18 24 37 144 37 239 l0 51 -37 7 c-55 9 -146 7
-162 -3z"/>
<path d="M406 162 c-7 -11 40 -26 55 -16 5 3 20 -1 33 -10 13 -8 26 -12 30 -9
10 11 7 30 -6 32 -68 10 -107 11 -112 3z"/>
</g>
</svg>
